<?xml version="1.0" encoding="UTF-8" standalone="no"?>
<!DOCTYPE svg PUBLIC "-//W3C//DTD SVG 1.1//EN" "http://www.w3.org/Graphics/SVG/1.1/DTD/svg11.dtd">
<svg width="100%" height="100%" viewBox="0 0 300 300" version="1.1" xmlns="http://www.w3.org/2000/svg" xmlns:xlink="http://www.w3.org/1999/xlink" xml:space="preserve" xmlns:serif="http://www.serif.com/" style="fill-rule:evenodd;clip-rule:evenodd;stroke-linejoin:round;stroke-miterlimit:2;">
    <g transform="matrix(1,0,0,1,-743,0)">
        <g id="アートボード3" transform="matrix(0.375,0,0,0.5,743,0)">
            <rect x="0" y="0" width="800" height="600" style="fill:none;"/>
            <g transform="matrix(1,0,0,1,0,-38)">
                <g id="本体" transform="matrix(3.76648,0,0,2.82486,-276.083,-247.458)">
                    <circle cx="179.5" cy="211.5" r="88.5" style="fill:url(#_Linear1);"/>
                </g>
                <g id="でこ" transform="matrix(2.66667,0,0,2,0,0)">
                    <path d="M116.51,33C123.426,31.75 136.255,42.5 150,42.5C163.745,42.5 176.574,31.75 183.49,33C190.407,34.25 191.5,40.841 191.5,50C191.5,72.904 172.904,91.5 150,91.5C127.096,91.5 108.5,72.904 108.5,50C108.5,40.841 109.593,34.25 116.51,33Z" style="fill:url(#_Linear2);"/>
                </g>
                <g transform="matrix(2.66667,0,0,2,0,0)">
                    <path d="M150,42.5C148.989,42.972 211.394,78.219 227,144C242.606,209.781 200,228 200,228C200,228 160.798,57.773 150,42.5" style="fill:url(#_Linear3);"/>
                </g>
            </g>
        </g>
    </g>
    <defs>
        <linearGradient id="_Linear1" x1="0" y1="0" x2="1" y2="0" gradientUnits="userSpaceOnUse" gradientTransform="matrix(177,0,0,267.101,91,166.449)"><stop offset="0" style="stop-color:rgb(231,255,0);stop-opacity:1"/><stop offset="1" style="stop-color:rgb(255,203,131);stop-opacity:1"/></linearGradient>
        <linearGradient id="_Linear2" x1="0" y1="0" x2="1" y2="0" gradientUnits="userSpaceOnUse" gradientTransform="matrix(177,0,0,267.101,91,166.449)"><stop offset="0" style="stop-color:rgb(231,255,0);stop-opacity:1"/><stop offset="1" style="stop-color:rgb(255,203,131);stop-opacity:1"/></linearGradient>
        <linearGradient id="_Linear3" x1="0" y1="0" x2="1" y2="0" gradientUnits="userSpaceOnUse" gradientTransform="matrix(80.4489,0,0,185.5,149.988,135.25)"><stop offset="0" style="stop-color:rgb(225,255,0);stop-opacity:1"/><stop offset="1" style="stop-color:rgb(57,255,48);stop-opacity:1"/></linearGradient>
    </defs>
</svg>
