<?xml version="1.0" encoding="UTF-8" standalone="no"?>
<!DOCTYPE svg PUBLIC "-//W3C//DTD SVG 1.1//EN" "http://www.w3.org/Graphics/SVG/1.1/DTD/svg11.dtd">
<svg width="100%" height="100%" viewBox="0 0 300 300" version="1.1" xmlns="http://www.w3.org/2000/svg" xmlns:xlink="http://www.w3.org/1999/xlink" xml:space="preserve" xmlns:serif="http://www.serif.com/" style="fill-rule:evenodd;clip-rule:evenodd;stroke-linejoin:round;stroke-miterlimit:2;">
    <g transform="matrix(1,0,0,1,-1436,-2.5)">
        <g id="アートボード5" transform="matrix(0.375,0,0,0.5,1436,2.5)">
            <rect x="0" y="0" width="800" height="600" style="fill:none;"/>
            <clipPath id="_clip1">
                <rect x="0" y="0" width="800" height="600"/>
            </clipPath>
            <g clip-path="url(#_clip1)">
                <g transform="matrix(4.0126,0,0,3.00945,-4398.44,-6.52362)">
                    <clipPath id="_clip2">
                        <rect x="1096.47" y="2.5" width="199.372" height="199.04"/>
                    </clipPath>
                    <g clip-path="url(#_clip2)">
                        <path d="M1156.47,287.5L1156.47,301.5L1170.47,301.5L1170.47,287.5L1156.47,287.5ZM1171.47,287.5L1171.47,301.5L1185.47,301.5L1185.47,287.5L1171.47,287.5ZM1186.47,287.5L1186.47,301.5L1200.47,301.5L1200.47,287.5L1186.47,287.5ZM1096.47,287.5L1096.47,301.5L1110.47,301.5L1110.47,287.5L1096.47,287.5ZM1111.47,287.5L1111.47,301.5L1125.47,301.5L1125.47,287.5L1111.47,287.5ZM1126.47,287.5L1126.47,301.5L1140.47,301.5L1140.47,287.5L1126.47,287.5ZM1141.47,287.5L1141.47,301.5L1155.47,301.5L1155.47,287.5L1141.47,287.5ZM1246.47,287.5L1246.47,301.5L1260.47,301.5L1260.47,287.5L1246.47,287.5ZM1261.47,287.5L1261.47,301.5L1275.47,301.5L1275.47,287.5L1261.47,287.5ZM1276.47,287.5L1276.47,301.5L1290.47,301.5L1290.47,287.5L1276.47,287.5ZM1291.47,287.5L1291.47,301.5L1305.47,301.5L1305.47,287.5L1291.47,287.5ZM1306.47,287.5L1306.47,301.5L1320.47,301.5L1320.47,287.5L1306.47,287.5ZM1321.47,287.5L1321.47,301.5L1335.47,301.5L1335.47,287.5L1321.47,287.5ZM1336.47,287.5L1336.47,301.5L1350.47,301.5L1350.47,287.5L1336.47,287.5ZM1351.47,287.5L1351.47,301.5L1365.47,301.5L1365.47,287.5L1351.47,287.5ZM1366.47,287.5L1366.47,301.5L1380.47,301.5L1380.47,287.5L1366.47,287.5ZM1381.47,287.5L1381.47,301.5L1395.47,301.5L1395.47,287.5L1381.47,287.5ZM1201.47,287.5L1201.47,301.5L1215.47,301.5L1215.47,287.5L1201.47,287.5ZM1216.47,287.5L1216.47,301.5L1230.47,301.5L1230.47,287.5L1216.47,287.5ZM1231.47,287.5L1231.47,301.5L1245.47,301.5L1245.47,287.5L1231.47,287.5ZM1111.48,272.5L1111.47,286.5L1125.47,286.5L1125.48,272.5L1111.48,272.5ZM1126.48,272.5L1126.47,286.5L1140.47,286.5L1140.48,272.5L1126.48,272.5ZM1141.48,272.5L1141.47,286.5L1155.47,286.5L1155.48,272.5L1141.48,272.5ZM1156.48,272.5L1156.47,286.5L1170.47,286.5L1170.48,272.5L1156.48,272.5ZM1171.48,272.5L1171.47,286.5L1185.47,286.5L1185.48,272.5L1171.48,272.5ZM1186.48,272.5L1186.47,286.5L1200.47,286.5L1200.48,272.5L1186.48,272.5ZM1096.48,272.5L1096.47,286.5L1110.47,286.5L1110.48,272.5L1096.48,272.5ZM1246.48,272.5L1246.47,286.5L1260.47,286.5L1260.48,272.5L1246.48,272.5ZM1201.48,272.5L1201.47,286.5L1215.47,286.5L1215.48,272.5L1201.48,272.5ZM1216.48,272.5L1216.47,286.5L1230.47,286.5L1230.48,272.5L1216.48,272.5ZM1231.48,272.5L1231.47,286.5L1245.47,286.5L1245.48,272.5L1231.48,272.5ZM1261.48,272.5L1261.47,286.5L1275.47,286.5L1275.48,272.5L1261.48,272.5ZM1276.48,272.5L1276.47,286.5L1290.47,286.5L1290.48,272.5L1276.48,272.5ZM1291.48,272.5L1291.47,286.5L1305.47,286.5L1305.48,272.5L1291.48,272.5ZM1306.48,272.5L1306.47,286.5L1320.47,286.5L1320.48,272.5L1306.48,272.5ZM1321.48,272.5L1321.47,286.5L1335.47,286.5L1335.48,272.5L1321.48,272.5ZM1336.48,272.5L1336.47,286.5L1350.47,286.5L1350.48,272.5L1336.48,272.5ZM1351.48,272.5L1351.47,286.5L1365.47,286.5L1365.48,272.5L1351.48,272.5ZM1366.48,272.5L1366.47,286.5L1380.47,286.5L1380.48,272.5L1366.48,272.5ZM1381.48,272.5L1381.47,286.5L1395.47,286.5L1395.48,272.5L1381.48,272.5ZM1096.48,257.5L1096.48,271.5L1110.48,271.5L1110.48,257.5L1096.48,257.5ZM1111.48,257.5L1111.48,271.5L1125.48,271.5L1125.48,257.5L1111.48,257.5ZM1126.48,257.5L1126.48,271.5L1140.48,271.5L1140.48,257.5L1126.48,257.5ZM1141.48,257.5L1141.48,271.5L1155.48,271.5L1155.48,257.5L1141.48,257.5ZM1156.48,257.5L1156.48,271.5L1170.48,271.5L1170.48,257.5L1156.48,257.5ZM1171.48,257.5L1171.48,271.5L1185.48,271.5L1185.48,257.5L1171.48,257.5ZM1186.48,257.5L1186.48,271.5L1200.48,271.5L1200.48,257.5L1186.48,257.5ZM1351.48,257.5L1351.48,271.5L1365.48,271.5L1365.48,257.5L1351.48,257.5ZM1366.48,257.5L1366.48,271.5L1380.48,271.5L1380.48,257.5L1366.48,257.5ZM1381.48,257.5L1381.48,271.5L1395.48,271.5L1395.48,257.5L1381.48,257.5ZM1246.48,257.5L1246.48,271.5L1260.48,271.5L1260.48,257.5L1246.48,257.5ZM1261.48,257.5L1261.48,271.5L1275.48,271.5L1275.48,257.5L1261.48,257.5ZM1276.48,257.5L1276.48,271.5L1290.48,271.5L1290.48,257.5L1276.48,257.5ZM1291.48,257.5L1291.48,271.5L1305.48,271.5L1305.48,257.5L1291.48,257.5ZM1306.48,257.5L1306.48,271.5L1320.48,271.5L1320.48,257.5L1306.48,257.5ZM1321.48,257.5L1321.48,271.5L1335.48,271.5L1335.48,257.5L1321.48,257.5ZM1336.48,257.5L1336.48,271.5L1350.48,271.5L1350.48,257.5L1336.48,257.5ZM1201.48,257.5L1201.48,271.5L1215.48,271.5L1215.48,257.5L1201.48,257.5ZM1216.48,257.5L1216.48,271.5L1230.48,271.5L1230.48,257.5L1216.48,257.5ZM1231.48,257.5L1231.48,271.5L1245.48,271.5L1245.48,257.5L1231.48,257.5ZM1246.48,242.5L1246.48,256.5L1260.48,256.5L1260.48,242.5L1246.48,242.5ZM1261.48,242.5L1261.48,256.5L1275.48,256.5L1275.48,242.5L1261.48,242.5ZM1276.48,242.5L1276.48,256.5L1290.48,256.5L1290.48,242.5L1276.48,242.5ZM1291.48,242.5L1291.48,256.5L1305.48,256.5L1305.48,242.5L1291.48,242.5ZM1306.48,242.5L1306.48,256.5L1320.48,256.5L1320.48,242.5L1306.48,242.5ZM1321.48,242.5L1321.48,256.5L1335.48,256.5L1335.48,242.5L1321.48,242.5ZM1336.48,242.5L1336.48,256.5L1350.48,256.5L1350.48,242.5L1336.48,242.5ZM1351.48,242.5L1351.48,256.5L1365.48,256.5L1365.48,242.5L1351.48,242.5ZM1366.48,242.5L1366.48,256.5L1380.48,256.5L1380.48,242.5L1366.48,242.5ZM1381.48,242.5L1381.48,256.5L1395.48,256.5L1395.48,242.5L1381.48,242.5ZM1096.48,242.5L1096.48,256.5L1110.48,256.5L1110.48,242.5L1096.48,242.5ZM1111.48,242.5L1111.48,256.5L1125.48,256.5L1125.48,242.5L1111.48,242.5ZM1126.48,242.5L1126.48,256.5L1140.48,256.5L1140.48,242.5L1126.48,242.5ZM1141.48,242.5L1141.48,256.5L1155.48,256.5L1155.48,242.5L1141.48,242.5ZM1156.48,242.5L1156.48,256.5L1170.48,256.5L1170.48,242.5L1156.48,242.5ZM1171.48,242.5L1171.48,256.5L1185.48,256.5L1185.48,242.5L1171.48,242.5ZM1186.48,242.5L1186.48,256.5L1200.48,256.5L1200.48,242.5L1186.48,242.5ZM1201.48,242.5L1201.48,256.5L1215.48,256.5L1215.48,242.5L1201.48,242.5ZM1216.48,242.5L1216.48,256.5L1230.48,256.5L1230.48,242.5L1216.48,242.5ZM1231.48,242.5L1231.48,256.5L1245.48,256.5L1245.48,242.5L1231.48,242.5ZM1141.49,227.5L1141.48,241.5L1155.48,241.5L1155.49,227.5L1141.49,227.5ZM1186.49,227.5L1186.48,241.5L1200.48,241.5L1200.49,227.5L1186.49,227.5ZM1156.49,227.5L1156.48,241.5L1170.48,241.5L1170.49,227.5L1156.49,227.5ZM1171.49,227.5L1171.48,241.5L1185.48,241.5L1185.49,227.5L1171.49,227.5ZM1096.49,227.5L1096.48,241.5L1110.48,241.5L1110.49,227.5L1096.49,227.5ZM1111.49,227.5L1111.48,241.5L1125.48,241.5L1125.49,227.5L1111.49,227.5ZM1126.49,227.5L1126.48,241.5L1140.48,241.5L1140.49,227.5L1126.49,227.5ZM1246.49,227.5L1246.48,241.5L1260.48,241.5L1260.49,227.5L1246.49,227.5ZM1261.49,227.5L1261.48,241.5L1275.48,241.5L1275.49,227.5L1261.49,227.5ZM1276.49,227.5L1276.48,241.5L1290.48,241.5L1290.49,227.5L1276.49,227.5ZM1291.49,227.5L1291.48,241.5L1305.48,241.5L1305.49,227.5L1291.49,227.5ZM1306.49,227.5L1306.48,241.5L1320.48,241.5L1320.49,227.5L1306.49,227.5ZM1321.49,227.5L1321.48,241.5L1335.48,241.5L1335.49,227.5L1321.49,227.5ZM1351.49,227.5L1351.48,241.5L1365.48,241.5L1365.49,227.5L1351.49,227.5ZM1366.49,227.5L1366.48,241.5L1380.48,241.5L1380.49,227.5L1366.49,227.5ZM1381.49,227.5L1381.48,241.5L1395.48,241.5L1395.49,227.5L1381.49,227.5ZM1336.49,227.5L1336.48,241.5L1350.48,241.5L1350.49,227.5L1336.49,227.5ZM1201.49,227.5L1201.48,241.5L1215.48,241.5L1215.49,227.5L1201.49,227.5ZM1216.49,227.5L1216.48,241.5L1230.48,241.5L1230.49,227.5L1216.49,227.5ZM1231.49,227.5L1231.48,241.5L1245.48,241.5L1245.49,227.5L1231.49,227.5ZM1096.49,212.5L1096.49,226.5L1110.49,226.5L1110.49,212.5L1096.49,212.5ZM1111.49,212.5L1111.49,226.5L1125.49,226.5L1125.49,212.5L1111.49,212.5ZM1126.49,212.5L1126.49,226.5L1140.49,226.5L1140.49,212.5L1126.49,212.5ZM1141.49,212.5L1141.49,226.5L1155.49,226.5L1155.49,212.5L1141.49,212.5ZM1156.49,212.5L1156.49,226.5L1170.49,226.5L1170.49,212.5L1156.49,212.5ZM1171.49,212.5L1171.49,226.5L1185.49,226.5L1185.49,212.5L1171.49,212.5ZM1186.49,212.5L1186.49,226.5L1200.49,226.5L1200.49,212.5L1186.49,212.5ZM1246.49,212.5L1246.49,226.5L1260.49,226.5L1260.49,212.5L1246.49,212.5ZM1261.49,212.5L1261.49,226.5L1275.49,226.5L1275.49,212.5L1261.49,212.5ZM1276.49,212.5L1276.49,226.5L1290.49,226.5L1290.49,212.5L1276.49,212.5ZM1291.49,212.5L1291.49,226.5L1305.49,226.5L1305.49,212.5L1291.49,212.5ZM1306.49,212.5L1306.49,226.5L1320.49,226.5L1320.49,212.5L1306.49,212.5ZM1321.49,212.5L1321.49,226.5L1335.49,226.5L1335.49,212.5L1321.49,212.5ZM1336.49,212.5L1336.49,226.5L1350.49,226.5L1350.49,212.5L1336.49,212.5ZM1351.49,212.5L1351.49,226.5L1365.49,226.5L1365.49,212.5L1351.49,212.5ZM1366.49,212.5L1366.49,226.5L1380.49,226.5L1380.49,212.5L1366.49,212.5ZM1381.49,212.5L1381.49,226.5L1395.49,226.5L1395.49,212.5L1381.49,212.5ZM1201.49,212.5L1201.49,226.5L1215.49,226.5L1215.49,212.5L1201.49,212.5ZM1216.49,212.5L1216.49,226.5L1230.49,226.5L1230.49,212.5L1216.49,212.5ZM1231.49,212.5L1231.49,226.5L1245.49,226.5L1245.49,212.5L1231.49,212.5ZM1156.49,197.5L1156.49,211.5L1170.49,211.5L1170.49,197.5L1156.49,197.5ZM1171.49,197.5L1171.49,211.5L1185.49,211.5L1185.49,197.5L1171.49,197.5ZM1186.49,197.5L1186.49,211.5L1200.49,211.5L1200.49,197.5L1186.49,197.5ZM1096.49,197.5L1096.49,211.5L1110.49,211.5L1110.49,197.5L1096.49,197.5ZM1111.49,197.5L1111.49,211.5L1125.49,211.5L1125.49,197.5L1111.49,197.5ZM1126.49,197.5L1126.49,211.5L1140.49,211.5L1140.49,197.5L1126.49,197.5ZM1141.49,197.5L1141.49,211.5L1155.49,211.5L1155.49,197.5L1141.49,197.5ZM1261.49,197.5L1261.49,211.5L1275.49,211.5L1275.49,197.5L1261.49,197.5ZM1246.49,197.5L1246.49,211.5L1260.49,211.5L1260.49,197.5L1246.49,197.5ZM1381.49,197.5L1381.49,211.5L1395.49,211.5L1395.49,197.5L1381.49,197.5ZM1276.49,197.5L1276.49,211.5L1290.49,211.5L1290.49,197.5L1276.49,197.5ZM1291.49,197.5L1291.49,211.5L1305.49,211.5L1305.49,197.5L1291.49,197.5ZM1306.49,197.5L1306.49,211.5L1320.49,211.5L1320.49,197.5L1306.49,197.5ZM1321.49,197.5L1321.49,211.5L1335.49,211.5L1335.49,197.5L1321.49,197.5ZM1336.49,197.5L1336.49,211.5L1350.49,211.5L1350.49,197.5L1336.49,197.5ZM1351.49,197.5L1351.49,211.5L1365.49,211.5L1365.49,197.5L1351.49,197.5ZM1366.49,197.5L1366.49,211.5L1380.49,211.5L1380.49,197.5L1366.49,197.5ZM1201.49,197.5L1201.49,211.5L1215.49,211.5L1215.49,197.5L1201.49,197.5ZM1216.49,197.5L1216.49,211.5L1230.49,211.5L1230.49,197.5L1216.49,197.5ZM1231.49,197.5L1231.49,211.5L1245.49,211.5L1245.49,197.5L1231.49,197.5ZM1171.49,182.5L1171.49,196.5L1185.49,196.5L1185.49,182.5L1171.49,182.5ZM1186.49,182.5L1186.49,196.5L1200.49,196.5L1200.49,182.5L1186.49,182.5ZM1096.49,182.5L1096.49,196.5L1110.49,196.5L1110.49,182.5L1096.49,182.5ZM1111.49,182.5L1111.49,196.5L1125.49,196.5L1125.49,182.5L1111.49,182.5ZM1126.49,182.5L1126.49,196.5L1140.49,196.5L1140.49,182.5L1126.49,182.5ZM1141.49,182.5L1141.49,196.5L1155.49,196.5L1155.49,182.5L1141.49,182.5ZM1156.49,182.5L1156.49,196.5L1170.49,196.5L1170.49,182.5L1156.49,182.5ZM1306.49,182.5L1306.49,196.5L1320.49,196.5L1320.49,182.5L1306.49,182.5ZM1291.49,182.5L1291.49,196.5L1305.49,196.5L1305.49,182.5L1291.49,182.5ZM1276.49,182.5L1276.49,196.5L1290.49,196.5L1290.49,182.5L1276.49,182.5ZM1261.49,182.5L1261.49,196.5L1275.49,196.5L1275.49,182.5L1261.49,182.5ZM1246.49,182.5L1246.49,196.5L1260.49,196.5L1260.49,182.5L1246.49,182.5ZM1201.49,182.5L1201.49,196.5L1215.49,196.5L1215.49,182.5L1201.49,182.5ZM1231.49,182.5L1231.49,196.5L1245.49,196.5L1245.49,182.5L1231.49,182.5ZM1216.49,182.5L1216.49,196.5L1230.49,196.5L1230.49,182.5L1216.49,182.5ZM1321.49,182.5L1321.49,196.5L1335.49,196.5L1335.49,182.5L1321.49,182.5ZM1336.49,182.5L1336.49,196.5L1350.49,196.5L1350.49,182.5L1336.49,182.5ZM1351.49,182.5L1351.49,196.5L1365.49,196.5L1365.49,182.5L1351.49,182.5ZM1366.49,182.5L1366.49,196.5L1380.49,196.5L1380.49,182.5L1366.49,182.5ZM1381.49,182.5L1381.49,196.5L1395.49,196.5L1395.49,182.5L1381.49,182.5ZM1096.5,167.5L1096.49,181.5L1110.49,181.5L1110.5,167.5L1096.5,167.5ZM1111.5,167.5L1111.49,181.5L1125.49,181.5L1125.5,167.5L1111.5,167.5ZM1126.5,167.5L1126.49,181.5L1140.49,181.5L1140.5,167.5L1126.5,167.5ZM1141.5,167.5L1141.49,181.5L1155.49,181.5L1155.5,167.5L1141.5,167.5ZM1156.5,167.5L1156.49,181.5L1170.49,181.5L1170.5,167.5L1156.5,167.5ZM1171.5,167.5L1171.49,181.5L1185.49,181.5L1185.5,167.5L1171.5,167.5ZM1186.5,167.5L1186.49,181.5L1200.49,181.5L1200.5,167.5L1186.5,167.5ZM1381.5,167.5L1381.49,181.5L1395.49,181.5L1395.5,167.5L1381.5,167.5ZM1351.5,167.5L1351.49,181.5L1365.49,181.5L1365.5,167.5L1351.5,167.5ZM1366.5,167.5L1366.49,181.5L1380.49,181.5L1380.5,167.5L1366.5,167.5ZM1201.5,167.5L1201.49,181.5L1215.49,181.5L1215.5,167.5L1201.5,167.5ZM1216.5,167.5L1216.49,181.5L1230.49,181.5L1230.5,167.5L1216.5,167.5ZM1231.5,167.5L1231.49,181.5L1245.49,181.5L1245.5,167.5L1231.5,167.5ZM1246.5,167.5L1246.49,181.5L1260.49,181.5L1260.5,167.5L1246.5,167.5ZM1261.5,167.5L1261.49,181.5L1275.49,181.5L1275.5,167.5L1261.5,167.5ZM1276.5,167.5L1276.49,181.5L1290.49,181.5L1290.5,167.5L1276.5,167.5ZM1291.5,167.5L1291.49,181.5L1305.49,181.5L1305.5,167.5L1291.5,167.5ZM1306.5,167.5L1306.49,181.5L1320.49,181.5L1320.5,167.5L1306.5,167.5ZM1321.5,167.5L1321.49,181.5L1335.49,181.5L1335.5,167.5L1321.5,167.5ZM1336.5,167.5L1336.49,181.5L1350.49,181.5L1350.5,167.5L1336.5,167.5ZM1186.5,152.5L1186.5,166.5L1200.5,166.5L1200.5,152.5L1186.5,152.5ZM1156.5,152.5L1156.5,166.5L1170.5,166.5L1170.5,152.5L1156.5,152.5ZM1141.5,152.5L1141.5,166.5L1155.5,166.5L1155.5,152.5L1141.5,152.5ZM1126.5,152.5L1126.5,166.5L1140.5,166.5L1140.5,152.5L1126.5,152.5ZM1111.5,152.5L1111.5,166.5L1125.5,166.5L1125.5,152.5L1111.5,152.5ZM1096.5,152.5L1096.5,166.5L1110.5,166.5L1110.5,152.5L1096.5,152.5ZM1171.5,152.5L1171.5,166.5L1185.5,166.5L1185.5,152.5L1171.5,152.5ZM1246.5,152.5L1246.5,166.5L1260.5,166.5L1260.5,152.5L1246.5,152.5ZM1261.5,152.5L1261.5,166.5L1275.5,166.5L1275.5,152.5L1261.5,152.5ZM1276.5,152.5L1276.5,166.5L1290.5,166.5L1290.5,152.5L1276.5,152.5ZM1291.5,152.5L1291.5,166.5L1305.5,166.5L1305.5,152.5L1291.5,152.5ZM1306.5,152.5L1306.5,166.5L1320.5,166.5L1320.5,152.5L1306.5,152.5ZM1321.5,152.5L1321.5,166.5L1335.5,166.5L1335.5,152.5L1321.5,152.5ZM1336.5,152.5L1336.5,166.5L1350.5,166.5L1350.5,152.5L1336.5,152.5ZM1351.5,152.5L1351.5,166.5L1365.5,166.5L1365.5,152.5L1351.5,152.5ZM1366.5,152.5L1366.5,166.5L1380.5,166.5L1380.5,152.5L1366.5,152.5ZM1381.5,152.5L1381.5,166.5L1395.5,166.5L1395.5,152.5L1381.5,152.5ZM1201.5,152.5L1201.5,166.5L1215.5,166.5L1215.5,152.5L1201.5,152.5ZM1216.5,152.5L1216.5,166.5L1230.5,166.5L1230.5,152.5L1216.5,152.5ZM1231.5,152.5L1231.5,166.5L1245.5,166.5L1245.5,152.5L1231.5,152.5ZM1111.5,137.5L1111.5,151.5L1125.5,151.5L1125.5,137.5L1111.5,137.5ZM1096.5,137.5L1096.5,151.5L1110.5,151.5L1110.5,137.5L1096.5,137.5ZM1126.5,137.5L1126.5,151.5L1140.5,151.5L1140.5,137.5L1126.5,137.5ZM1141.5,137.5L1141.5,151.5L1155.5,151.5L1155.5,137.5L1141.5,137.5ZM1156.5,137.5L1156.5,151.5L1170.5,151.5L1170.5,137.5L1156.5,137.5ZM1171.5,137.5L1171.5,151.5L1185.5,151.5L1185.5,137.5L1171.5,137.5ZM1186.5,137.5L1186.5,151.5L1200.5,151.5L1200.5,137.5L1186.5,137.5ZM1201.5,137.5L1201.5,151.5L1215.5,151.5L1215.5,137.5L1201.5,137.5ZM1216.5,137.5L1216.5,151.5L1230.5,151.5L1230.5,137.5L1216.5,137.5ZM1231.5,137.5L1231.5,151.5L1245.5,151.5L1245.5,137.5L1231.5,137.5ZM1276.5,137.5L1276.5,151.5L1290.5,151.5L1290.5,137.5L1276.5,137.5ZM1246.5,137.5L1246.5,151.5L1260.5,151.5L1260.5,137.5L1246.5,137.5ZM1261.5,137.5L1261.5,151.5L1275.5,151.5L1275.5,137.5L1261.5,137.5ZM1291.5,137.5L1291.5,151.5L1305.5,151.5L1305.5,137.5L1291.5,137.5ZM1306.5,137.5L1306.5,151.5L1320.5,151.5L1320.5,137.5L1306.5,137.5ZM1321.5,137.5L1321.5,151.5L1335.5,151.5L1335.5,137.5L1321.5,137.5ZM1336.5,137.5L1336.5,151.5L1350.5,151.5L1350.5,137.5L1336.5,137.5ZM1351.5,137.5L1351.5,151.5L1365.5,151.5L1365.5,137.5L1351.5,137.5ZM1366.5,137.5L1366.5,151.5L1380.5,151.5L1380.5,137.5L1366.5,137.5ZM1381.5,137.5L1381.5,151.5L1395.5,151.5L1395.5,137.5L1381.5,137.5ZM1096.51,122.5L1096.5,136.5L1110.5,136.5L1110.51,122.5L1096.51,122.5ZM1111.51,122.5L1111.5,136.5L1125.5,136.5L1125.51,122.5L1111.51,122.5ZM1126.51,122.5L1126.5,136.5L1140.5,136.5L1140.51,122.5L1126.51,122.5ZM1141.51,122.5L1141.5,136.5L1155.5,136.5L1155.51,122.5L1141.51,122.5ZM1156.51,122.5L1156.5,136.5L1170.5,136.5L1170.51,122.5L1156.51,122.5ZM1171.51,122.5L1171.5,136.5L1185.5,136.5L1185.51,122.5L1171.51,122.5ZM1186.51,122.5L1186.5,136.5L1200.5,136.5L1200.51,122.5L1186.51,122.5ZM1201.51,122.5L1201.5,136.5L1215.5,136.5L1215.51,122.5L1201.51,122.5ZM1216.51,122.5L1216.5,136.5L1230.5,136.5L1230.51,122.5L1216.51,122.5ZM1231.51,122.5L1231.5,136.5L1245.5,136.5L1245.51,122.5L1231.51,122.5ZM1246.51,122.5L1246.5,136.5L1260.5,136.5L1260.51,122.5L1246.51,122.5ZM1261.51,122.5L1261.5,136.5L1275.5,136.5L1275.51,122.5L1261.51,122.5ZM1276.51,122.5L1276.5,136.5L1290.5,136.5L1290.51,122.5L1276.51,122.5ZM1291.51,122.5L1291.5,136.5L1305.5,136.5L1305.51,122.5L1291.51,122.5ZM1306.51,122.5L1306.5,136.5L1320.5,136.5L1320.51,122.5L1306.51,122.5ZM1321.51,122.5L1321.5,136.5L1335.5,136.5L1335.51,122.5L1321.51,122.5ZM1336.51,122.5L1336.5,136.5L1350.5,136.5L1350.51,122.5L1336.51,122.5ZM1351.51,122.5L1351.5,136.5L1365.5,136.5L1365.51,122.5L1351.51,122.5ZM1366.51,122.5L1366.5,136.5L1380.5,136.5L1380.51,122.5L1366.51,122.5ZM1381.51,122.5L1381.5,136.5L1395.5,136.5L1395.51,122.5L1381.51,122.5ZM1126.51,107.5L1126.51,121.5L1140.51,121.5L1140.51,107.5L1126.51,107.5ZM1096.51,107.5L1096.51,121.5L1110.51,121.5L1110.51,107.5L1096.51,107.5ZM1111.51,107.5L1111.51,121.5L1125.51,121.5L1125.51,107.5L1111.51,107.5ZM1141.51,107.5L1141.51,121.5L1155.51,121.5L1155.51,107.5L1141.51,107.5ZM1156.51,107.5L1156.51,121.5L1170.51,121.5L1170.51,107.5L1156.51,107.5ZM1171.51,107.5L1171.51,121.5L1185.51,121.5L1185.51,107.5L1171.51,107.5ZM1186.51,107.5L1186.51,121.5L1200.51,121.5L1200.51,107.5L1186.51,107.5ZM1201.51,107.5L1201.51,121.5L1215.51,121.5L1215.51,107.5L1201.51,107.5ZM1216.51,107.5L1216.51,121.5L1230.51,121.5L1230.51,107.5L1216.51,107.5ZM1231.51,107.5L1231.51,121.5L1245.51,121.5L1245.51,107.5L1231.51,107.5ZM1321.51,107.5L1321.51,121.5L1335.51,121.5L1335.51,107.5L1321.51,107.5ZM1246.51,107.5L1246.51,121.5L1260.51,121.5L1260.51,107.5L1246.51,107.5ZM1261.51,107.5L1261.51,121.5L1275.51,121.5L1275.51,107.5L1261.51,107.5ZM1276.51,107.5L1276.51,121.5L1290.51,121.5L1290.51,107.5L1276.51,107.5ZM1291.51,107.5L1291.51,121.5L1305.51,121.5L1305.51,107.5L1291.51,107.5ZM1306.51,107.5L1306.51,121.5L1320.51,121.5L1320.51,107.5L1306.51,107.5ZM1381.51,107.5L1381.51,121.5L1395.51,121.5L1395.51,107.5L1381.51,107.5ZM1366.51,107.5L1366.51,121.5L1380.51,121.5L1380.51,107.5L1366.51,107.5ZM1351.51,107.5L1351.51,121.5L1365.51,121.5L1365.51,107.5L1351.51,107.5ZM1336.51,107.5L1336.51,121.5L1350.51,121.5L1350.51,107.5L1336.51,107.5ZM1141.51,92.5L1141.51,106.5L1155.51,106.5L1155.51,92.5L1141.51,92.5ZM1126.51,92.5L1126.51,106.5L1140.51,106.5L1140.51,92.5L1126.51,92.5ZM1111.51,92.5L1111.51,106.5L1125.51,106.5L1125.51,92.5L1111.51,92.5ZM1096.51,92.5L1096.51,106.5L1110.51,106.5L1110.51,92.5L1096.51,92.5ZM1156.51,92.5L1156.51,106.5L1170.51,106.5L1170.51,92.5L1156.51,92.5ZM1171.51,92.5L1171.51,106.5L1185.51,106.5L1185.51,92.5L1171.51,92.5ZM1186.51,92.5L1186.51,106.5L1200.51,106.5L1200.51,92.5L1186.51,92.5ZM1201.51,92.5L1201.51,106.5L1215.51,106.5L1215.51,92.5L1201.51,92.5ZM1216.51,92.5L1216.51,106.5L1230.51,106.5L1230.51,92.5L1216.51,92.5ZM1231.51,92.5L1231.51,106.5L1245.51,106.5L1245.51,92.5L1231.51,92.5ZM1291.51,92.5L1291.51,106.5L1305.51,106.5L1305.51,92.5L1291.51,92.5ZM1246.51,92.5L1246.51,106.5L1260.51,106.5L1260.51,92.5L1246.51,92.5ZM1261.51,92.5L1261.51,106.5L1275.51,106.5L1275.51,92.5L1261.51,92.5ZM1276.51,92.5L1276.51,106.5L1290.51,106.5L1290.51,92.5L1276.51,92.5ZM1306.51,92.5L1306.51,106.5L1320.51,106.5L1320.51,92.5L1306.51,92.5ZM1321.51,92.5L1321.51,106.5L1335.51,106.5L1335.51,92.5L1321.51,92.5ZM1336.51,92.5L1336.51,106.5L1350.51,106.5L1350.51,92.5L1336.51,92.5ZM1351.51,92.5L1351.51,106.5L1365.51,106.5L1365.51,92.5L1351.51,92.5ZM1366.51,92.5L1366.51,106.5L1380.51,106.5L1380.51,92.5L1366.51,92.5ZM1381.51,92.5L1381.51,106.5L1395.51,106.5L1395.51,92.5L1381.51,92.5ZM1141.51,77.5L1141.51,91.5L1155.51,91.5L1155.51,77.5L1141.51,77.5ZM1126.51,77.5L1126.51,91.5L1140.51,91.5L1140.51,77.5L1126.51,77.5ZM1111.51,77.5L1111.51,91.5L1125.51,91.5L1125.51,77.5L1111.51,77.5ZM1096.51,77.5L1096.51,91.5L1110.51,91.5L1110.51,77.5L1096.51,77.5ZM1216.51,77.5L1216.51,91.5L1230.51,91.5L1230.51,77.5L1216.51,77.5ZM1201.51,77.5L1201.51,91.5L1215.51,91.5L1215.51,77.5L1201.51,77.5ZM1171.51,77.5L1171.51,91.5L1185.51,91.5L1185.51,77.5L1171.51,77.5ZM1156.51,77.5L1156.51,91.5L1170.51,91.5L1170.51,77.5L1156.51,77.5ZM1186.51,77.5L1186.51,91.5L1200.51,91.5L1200.51,77.5L1186.51,77.5ZM1231.51,77.5L1231.51,91.5L1245.51,91.5L1245.51,77.5L1231.51,77.5ZM1276.51,77.5L1276.51,91.5L1290.51,91.5L1290.51,77.5L1276.51,77.5ZM1291.51,77.5L1291.51,91.5L1305.51,91.5L1305.51,77.5L1291.51,77.5ZM1306.51,77.5L1306.51,91.5L1320.51,91.5L1320.51,77.5L1306.51,77.5ZM1321.51,77.5L1321.51,91.5L1335.51,91.5L1335.51,77.5L1321.51,77.5ZM1246.51,77.5L1246.51,91.5L1260.51,91.5L1260.51,77.5L1246.51,77.5ZM1261.51,77.5L1261.51,91.5L1275.51,91.5L1275.51,77.5L1261.51,77.5ZM1336.51,77.5L1336.51,91.5L1350.51,91.5L1350.51,77.5L1336.51,77.5ZM1366.51,77.5L1366.51,91.5L1380.51,91.5L1380.51,77.5L1366.51,77.5ZM1381.51,77.5L1381.51,91.5L1395.51,91.5L1395.51,77.5L1381.51,77.5ZM1351.51,77.5L1351.51,91.5L1365.51,91.5L1365.51,77.5L1351.51,77.5ZM1111.52,62.5L1111.52,76.5L1125.52,76.5L1125.52,62.5L1111.52,62.5ZM1096.52,62.5L1096.52,76.5L1110.52,76.5L1110.52,62.5L1096.52,62.5ZM1201.52,62.5L1201.52,76.5L1215.52,76.5L1215.52,62.5L1201.52,62.5ZM1126.52,62.5L1126.52,76.5L1140.52,76.5L1140.52,62.5L1126.52,62.5ZM1141.52,62.5L1141.52,76.5L1155.52,76.5L1155.52,62.5L1141.52,62.5ZM1156.52,62.5L1156.52,76.5L1170.52,76.5L1170.52,62.5L1156.52,62.5ZM1171.52,62.5L1171.52,76.5L1185.52,76.5L1185.52,62.5L1171.52,62.5ZM1186.52,62.5L1186.52,76.5L1200.52,76.5L1200.52,62.5L1186.52,62.5ZM1246.52,62.5L1246.52,76.5L1260.52,76.5L1260.52,62.5L1246.52,62.5ZM1261.52,62.5L1261.52,76.5L1275.52,76.5L1275.52,62.5L1261.52,62.5ZM1216.52,62.5L1216.52,76.5L1230.52,76.5L1230.52,62.5L1216.52,62.5ZM1231.52,62.5L1231.52,76.5L1245.52,76.5L1245.52,62.5L1231.52,62.5ZM1306.52,62.5L1306.52,76.5L1320.52,76.5L1320.52,62.5L1306.52,62.5ZM1276.52,62.5L1276.52,76.5L1290.52,76.5L1290.52,62.5L1276.52,62.5ZM1291.52,62.5L1291.52,76.5L1305.52,76.5L1305.52,62.5L1291.52,62.5ZM1321.52,62.5L1321.52,76.5L1335.52,76.5L1335.52,62.5L1321.52,62.5ZM1336.52,62.5L1336.52,76.5L1350.52,76.5L1350.52,62.5L1336.52,62.5ZM1351.52,62.5L1351.52,76.5L1365.52,76.5L1365.52,62.5L1351.52,62.5ZM1366.52,62.5L1366.52,76.5L1380.52,76.5L1380.52,62.5L1366.52,62.5ZM1381.52,62.5L1381.52,76.5L1395.52,76.5L1395.52,62.5L1381.52,62.5ZM1096.52,47.5L1096.52,61.5L1110.52,61.5L1110.52,47.5L1096.52,47.5ZM1111.52,47.5L1111.52,61.5L1125.52,61.5L1125.52,47.5L1111.52,47.5ZM1126.52,47.5L1126.52,61.5L1140.52,61.5L1140.52,47.5L1126.52,47.5ZM1141.52,47.5L1141.52,61.5L1155.52,61.5L1155.52,47.5L1141.52,47.5ZM1156.52,47.5L1156.52,61.5L1170.52,61.5L1170.52,47.5L1156.52,47.5ZM1171.52,47.5L1171.52,61.5L1185.52,61.5L1185.52,47.5L1171.52,47.5ZM1186.52,47.5L1186.52,61.5L1200.52,61.5L1200.52,47.5L1186.52,47.5ZM1201.52,47.5L1201.52,61.5L1215.52,61.5L1215.52,47.5L1201.52,47.5ZM1216.52,47.5L1216.52,61.5L1230.52,61.5L1230.52,47.5L1216.52,47.5ZM1231.52,47.5L1231.52,61.5L1245.52,61.5L1245.52,47.5L1231.52,47.5ZM1246.52,47.5L1246.52,61.5L1260.52,61.5L1260.52,47.5L1246.52,47.5ZM1261.52,47.5L1261.52,61.5L1275.52,61.5L1275.52,47.5L1261.52,47.5ZM1276.52,47.5L1276.52,61.5L1290.52,61.5L1290.52,47.5L1276.52,47.5ZM1291.52,47.5L1291.52,61.5L1305.52,61.5L1305.52,47.5L1291.52,47.5ZM1306.52,47.5L1306.52,61.5L1320.52,61.5L1320.52,47.5L1306.52,47.5ZM1321.52,47.5L1321.52,61.5L1335.52,61.5L1335.52,47.5L1321.52,47.5ZM1351.52,47.5L1351.52,61.5L1365.52,61.5L1365.52,47.5L1351.52,47.5ZM1336.52,47.5L1336.52,61.5L1350.52,61.5L1350.52,47.5L1336.52,47.5ZM1366.52,47.5L1366.52,61.5L1380.52,61.5L1380.52,47.5L1366.52,47.5ZM1381.52,47.5L1381.52,61.5L1395.52,61.5L1395.52,47.5L1381.52,47.5ZM1096.52,32.5L1096.52,46.5L1110.52,46.5L1110.52,32.5L1096.52,32.5ZM1111.52,32.5L1111.52,46.5L1125.52,46.5L1125.52,32.5L1111.52,32.5ZM1156.52,32.5L1156.52,46.5L1170.52,46.5L1170.52,32.5L1156.52,32.5ZM1126.52,32.5L1126.52,46.5L1140.52,46.5L1140.52,32.5L1126.52,32.5ZM1141.52,32.5L1141.52,46.5L1155.52,46.5L1155.52,32.5L1141.52,32.5ZM1171.52,32.5L1171.52,46.5L1185.52,46.5L1185.52,32.5L1171.52,32.5ZM1186.52,32.5L1186.52,46.5L1200.52,46.5L1200.52,32.5L1186.52,32.5ZM1201.52,32.5L1201.52,46.5L1215.52,46.5L1215.52,32.5L1201.52,32.5ZM1216.52,32.5L1216.52,46.5L1230.52,46.5L1230.52,32.5L1216.52,32.5ZM1261.52,32.5L1261.52,46.5L1275.52,46.5L1275.52,32.5L1261.52,32.5ZM1231.52,32.5L1231.52,46.5L1245.52,46.5L1245.52,32.5L1231.52,32.5ZM1246.52,32.5L1246.52,46.5L1260.52,46.5L1260.52,32.5L1246.52,32.5ZM1291.52,32.5L1291.52,46.5L1305.52,46.5L1305.52,32.5L1291.52,32.5ZM1306.52,32.5L1306.52,46.5L1320.52,46.5L1320.52,32.5L1306.52,32.5ZM1276.52,32.5L1276.52,46.5L1290.52,46.5L1290.52,32.5L1276.52,32.5ZM1351.52,32.5L1351.52,46.5L1365.52,46.5L1365.52,32.5L1351.52,32.5ZM1321.52,32.5L1321.52,46.5L1335.52,46.5L1335.52,32.5L1321.52,32.5ZM1336.52,32.5L1336.52,46.5L1350.52,46.5L1350.52,32.5L1336.52,32.5ZM1366.52,32.5L1366.52,46.5L1380.52,46.5L1380.52,32.5L1366.52,32.5ZM1381.52,32.5L1381.52,46.5L1395.52,46.5L1395.52,32.5L1381.52,32.5ZM1096.53,17.5L1096.52,31.5L1110.52,31.5L1110.53,17.5L1096.53,17.5ZM1111.53,17.5L1111.52,31.5L1125.52,31.5L1125.53,17.5L1111.53,17.5ZM1126.53,17.5L1126.52,31.5L1140.52,31.5L1140.53,17.5L1126.53,17.5ZM1141.53,17.5L1141.52,31.5L1155.52,31.5L1155.53,17.5L1141.53,17.5ZM1156.53,17.5L1156.52,31.5L1170.52,31.5L1170.53,17.5L1156.53,17.5ZM1171.53,17.5L1171.52,31.5L1185.52,31.5L1185.53,17.5L1171.53,17.5ZM1201.53,17.5L1201.52,31.5L1215.52,31.5L1215.53,17.5L1201.53,17.5ZM1186.53,17.5L1186.52,31.5L1200.52,31.5L1200.53,17.5L1186.53,17.5ZM1216.53,17.5L1216.52,31.5L1230.52,31.5L1230.53,17.5L1216.53,17.5ZM1246.53,17.5L1246.52,31.5L1260.52,31.5L1260.53,17.5L1246.53,17.5ZM1231.53,17.5L1231.52,31.5L1245.52,31.5L1245.53,17.5L1231.53,17.5ZM1261.53,17.5L1261.52,31.5L1275.52,31.5L1275.53,17.5L1261.53,17.5ZM1291.53,17.5L1291.52,31.5L1305.52,31.5L1305.53,17.5L1291.53,17.5ZM1276.53,17.5L1276.52,31.5L1290.52,31.5L1290.53,17.5L1276.53,17.5ZM1321.53,17.5L1321.52,31.5L1335.52,31.5L1335.53,17.5L1321.53,17.5ZM1306.53,17.5L1306.52,31.5L1320.52,31.5L1320.53,17.5L1306.53,17.5ZM1336.53,17.5L1336.52,31.5L1350.52,31.5L1350.53,17.5L1336.53,17.5ZM1351.53,17.5L1351.52,31.5L1365.52,31.5L1365.53,17.5L1351.53,17.5ZM1366.53,17.5L1366.52,31.5L1380.52,31.5L1380.53,17.5L1366.53,17.5ZM1381.53,17.5L1381.52,31.5L1395.52,31.5L1395.53,17.5L1381.53,17.5ZM1096.53,2.5L1096.53,16.5L1110.53,16.5L1110.53,2.5L1096.53,2.5ZM1111.53,2.5L1111.53,16.5L1125.53,16.5L1125.53,2.5L1111.53,2.5ZM1126.53,2.5L1126.53,16.5L1140.53,16.5L1140.53,2.5L1126.53,2.5ZM1141.53,2.5L1141.53,16.5L1155.53,16.5L1155.53,2.5L1141.53,2.5ZM1156.53,2.5L1156.53,16.5L1170.53,16.5L1170.53,2.5L1156.53,2.5ZM1171.53,2.5L1171.53,16.5L1185.53,16.5L1185.53,2.5L1171.53,2.5ZM1186.53,2.5L1186.53,16.5L1200.53,16.5L1200.53,2.5L1186.53,2.5ZM1201.53,2.5L1201.53,16.5L1215.53,16.5L1215.53,2.5L1201.53,2.5ZM1216.53,2.5L1216.53,16.5L1230.53,16.5L1230.53,2.5L1216.53,2.5ZM1231.53,2.5L1231.53,16.5L1245.53,16.5L1245.53,2.5L1231.53,2.5ZM1261.53,2.5L1261.53,16.5L1275.53,16.5L1275.53,2.5L1261.53,2.5ZM1246.53,2.5L1246.53,16.5L1260.53,16.5L1260.53,2.5L1246.53,2.5ZM1276.53,2.5L1276.53,16.5L1290.53,16.5L1290.53,2.5L1276.53,2.5ZM1291.53,2.5L1291.53,16.5L1305.53,16.5L1305.53,2.5L1291.53,2.5ZM1306.53,2.5L1306.53,16.5L1320.53,16.5L1320.53,2.5L1306.53,2.5ZM1321.53,2.5L1321.53,16.5L1335.53,16.5L1335.53,2.5L1321.53,2.5ZM1336.53,2.5L1336.53,16.5L1350.53,16.5L1350.53,2.5L1336.53,2.5ZM1351.53,2.5L1351.53,16.5L1365.53,16.5L1365.53,2.5L1351.53,2.5ZM1366.53,2.5L1366.53,16.5L1380.53,16.5L1380.53,2.5L1366.53,2.5ZM1381.53,2.5L1381.53,16.5L1395.53,16.5L1395.53,2.5L1381.53,2.5Z" style="fill:none;"/>
                        <clipPath id="_clip3">
                            <path d="M1156.47,287.5L1156.47,301.5L1170.47,301.5L1170.47,287.5L1156.47,287.5ZM1171.47,287.5L1171.47,301.5L1185.47,301.5L1185.47,287.5L1171.47,287.5ZM1186.47,287.5L1186.47,301.5L1200.47,301.5L1200.47,287.5L1186.47,287.5ZM1096.47,287.5L1096.47,301.5L1110.47,301.5L1110.47,287.5L1096.47,287.5ZM1111.47,287.5L1111.47,301.5L1125.47,301.5L1125.47,287.5L1111.47,287.5ZM1126.47,287.5L1126.47,301.5L1140.47,301.5L1140.47,287.5L1126.47,287.5ZM1141.47,287.5L1141.47,301.5L1155.47,301.5L1155.47,287.5L1141.47,287.5ZM1246.47,287.5L1246.47,301.5L1260.47,301.5L1260.47,287.5L1246.47,287.5ZM1261.47,287.5L1261.47,301.5L1275.47,301.5L1275.47,287.5L1261.47,287.5ZM1276.47,287.5L1276.47,301.5L1290.47,301.5L1290.47,287.5L1276.47,287.5ZM1291.47,287.5L1291.47,301.5L1305.47,301.5L1305.47,287.5L1291.47,287.5ZM1306.47,287.5L1306.47,301.5L1320.47,301.5L1320.47,287.5L1306.47,287.5ZM1321.47,287.5L1321.47,301.5L1335.47,301.5L1335.47,287.5L1321.47,287.5ZM1336.47,287.5L1336.47,301.5L1350.47,301.5L1350.47,287.5L1336.47,287.5ZM1351.47,287.5L1351.47,301.5L1365.47,301.5L1365.47,287.5L1351.47,287.5ZM1366.47,287.5L1366.47,301.5L1380.47,301.5L1380.47,287.5L1366.47,287.5ZM1381.47,287.5L1381.47,301.5L1395.47,301.5L1395.47,287.5L1381.47,287.5ZM1201.47,287.5L1201.47,301.5L1215.47,301.5L1215.47,287.5L1201.47,287.5ZM1216.47,287.5L1216.47,301.5L1230.47,301.5L1230.47,287.5L1216.47,287.5ZM1231.47,287.5L1231.47,301.5L1245.47,301.5L1245.47,287.5L1231.47,287.5ZM1111.48,272.5L1111.47,286.5L1125.47,286.5L1125.48,272.5L1111.48,272.5ZM1126.48,272.5L1126.47,286.5L1140.47,286.5L1140.48,272.5L1126.48,272.5ZM1141.48,272.5L1141.47,286.5L1155.47,286.5L1155.48,272.5L1141.48,272.5ZM1156.48,272.5L1156.47,286.5L1170.47,286.5L1170.48,272.5L1156.48,272.5ZM1171.48,272.5L1171.47,286.5L1185.47,286.5L1185.48,272.5L1171.48,272.5ZM1186.48,272.5L1186.47,286.5L1200.47,286.5L1200.48,272.5L1186.48,272.5ZM1096.48,272.5L1096.47,286.5L1110.47,286.5L1110.48,272.5L1096.48,272.5ZM1246.48,272.5L1246.47,286.5L1260.47,286.5L1260.48,272.5L1246.48,272.5ZM1201.48,272.5L1201.47,286.5L1215.47,286.5L1215.48,272.5L1201.48,272.5ZM1216.48,272.5L1216.47,286.5L1230.47,286.5L1230.48,272.5L1216.48,272.5ZM1231.48,272.5L1231.47,286.5L1245.47,286.5L1245.48,272.5L1231.48,272.5ZM1261.48,272.5L1261.47,286.5L1275.47,286.5L1275.48,272.5L1261.48,272.5ZM1276.48,272.5L1276.47,286.5L1290.47,286.5L1290.48,272.5L1276.48,272.5ZM1291.48,272.5L1291.47,286.5L1305.47,286.5L1305.48,272.5L1291.48,272.5ZM1306.48,272.5L1306.47,286.5L1320.47,286.5L1320.48,272.5L1306.48,272.5ZM1321.48,272.5L1321.47,286.5L1335.47,286.5L1335.48,272.5L1321.48,272.5ZM1336.48,272.5L1336.47,286.5L1350.47,286.5L1350.48,272.5L1336.48,272.5ZM1351.48,272.5L1351.47,286.5L1365.47,286.5L1365.48,272.5L1351.48,272.5ZM1366.48,272.5L1366.47,286.5L1380.47,286.5L1380.48,272.5L1366.48,272.5ZM1381.48,272.5L1381.47,286.5L1395.47,286.5L1395.48,272.5L1381.48,272.5ZM1096.48,257.5L1096.48,271.5L1110.48,271.5L1110.48,257.5L1096.48,257.5ZM1111.48,257.5L1111.48,271.5L1125.48,271.5L1125.48,257.5L1111.48,257.5ZM1126.48,257.5L1126.48,271.5L1140.48,271.5L1140.48,257.5L1126.48,257.5ZM1141.48,257.5L1141.48,271.5L1155.48,271.5L1155.48,257.5L1141.48,257.5ZM1156.48,257.5L1156.48,271.5L1170.48,271.5L1170.48,257.5L1156.48,257.5ZM1171.48,257.5L1171.48,271.5L1185.48,271.5L1185.48,257.5L1171.48,257.5ZM1186.48,257.5L1186.48,271.5L1200.48,271.5L1200.48,257.5L1186.48,257.5ZM1351.48,257.5L1351.48,271.5L1365.48,271.5L1365.48,257.5L1351.48,257.5ZM1366.48,257.5L1366.48,271.5L1380.48,271.5L1380.48,257.5L1366.48,257.5ZM1381.48,257.5L1381.48,271.5L1395.48,271.5L1395.48,257.5L1381.48,257.5ZM1246.48,257.5L1246.48,271.5L1260.48,271.5L1260.48,257.5L1246.48,257.5ZM1261.48,257.5L1261.48,271.5L1275.48,271.5L1275.48,257.5L1261.48,257.5ZM1276.48,257.5L1276.48,271.5L1290.48,271.5L1290.48,257.5L1276.48,257.5ZM1291.48,257.5L1291.48,271.5L1305.48,271.5L1305.48,257.5L1291.48,257.5ZM1306.48,257.5L1306.48,271.5L1320.48,271.5L1320.48,257.5L1306.48,257.5ZM1321.48,257.5L1321.48,271.5L1335.48,271.5L1335.48,257.5L1321.48,257.5ZM1336.48,257.5L1336.48,271.5L1350.48,271.5L1350.48,257.5L1336.48,257.5ZM1201.48,257.5L1201.48,271.5L1215.48,271.5L1215.48,257.5L1201.48,257.5ZM1216.48,257.5L1216.48,271.5L1230.48,271.5L1230.48,257.5L1216.48,257.5ZM1231.48,257.5L1231.48,271.5L1245.48,271.5L1245.48,257.5L1231.48,257.5ZM1246.48,242.5L1246.48,256.5L1260.48,256.5L1260.48,242.5L1246.48,242.5ZM1261.48,242.5L1261.48,256.5L1275.48,256.5L1275.48,242.5L1261.48,242.5ZM1276.48,242.5L1276.48,256.5L1290.48,256.5L1290.48,242.5L1276.48,242.5ZM1291.48,242.5L1291.48,256.5L1305.48,256.5L1305.48,242.5L1291.48,242.5ZM1306.48,242.5L1306.48,256.5L1320.48,256.5L1320.48,242.5L1306.48,242.5ZM1321.48,242.5L1321.48,256.5L1335.48,256.5L1335.48,242.5L1321.48,242.5ZM1336.48,242.5L1336.48,256.5L1350.48,256.5L1350.48,242.5L1336.48,242.5ZM1351.48,242.5L1351.48,256.5L1365.48,256.5L1365.48,242.5L1351.48,242.5ZM1366.48,242.5L1366.48,256.5L1380.48,256.5L1380.48,242.5L1366.48,242.5ZM1381.48,242.5L1381.48,256.5L1395.48,256.5L1395.48,242.5L1381.48,242.5ZM1096.48,242.5L1096.48,256.5L1110.48,256.5L1110.48,242.5L1096.48,242.5ZM1111.48,242.5L1111.48,256.5L1125.48,256.5L1125.48,242.5L1111.48,242.5ZM1126.48,242.5L1126.48,256.5L1140.48,256.5L1140.48,242.5L1126.48,242.5ZM1141.48,242.5L1141.48,256.5L1155.48,256.5L1155.48,242.5L1141.48,242.5ZM1156.48,242.5L1156.48,256.5L1170.48,256.5L1170.48,242.5L1156.48,242.5ZM1171.48,242.5L1171.48,256.5L1185.48,256.5L1185.48,242.5L1171.48,242.5ZM1186.48,242.5L1186.48,256.5L1200.48,256.5L1200.48,242.5L1186.48,242.5ZM1201.48,242.5L1201.48,256.5L1215.48,256.5L1215.48,242.5L1201.48,242.5ZM1216.48,242.5L1216.48,256.5L1230.48,256.5L1230.48,242.5L1216.48,242.5ZM1231.48,242.5L1231.48,256.5L1245.48,256.5L1245.48,242.5L1231.48,242.5ZM1141.49,227.5L1141.48,241.5L1155.48,241.5L1155.49,227.5L1141.49,227.5ZM1186.49,227.5L1186.48,241.5L1200.48,241.5L1200.49,227.5L1186.49,227.5ZM1156.49,227.5L1156.48,241.5L1170.48,241.5L1170.49,227.5L1156.49,227.5ZM1171.49,227.5L1171.48,241.5L1185.48,241.5L1185.49,227.5L1171.49,227.5ZM1096.49,227.5L1096.48,241.5L1110.48,241.5L1110.49,227.5L1096.49,227.5ZM1111.49,227.5L1111.48,241.5L1125.48,241.5L1125.49,227.5L1111.49,227.5ZM1126.49,227.5L1126.48,241.5L1140.48,241.5L1140.49,227.5L1126.49,227.5ZM1246.49,227.5L1246.48,241.5L1260.48,241.5L1260.49,227.5L1246.49,227.5ZM1261.49,227.5L1261.48,241.5L1275.48,241.5L1275.49,227.5L1261.49,227.5ZM1276.49,227.5L1276.48,241.5L1290.48,241.5L1290.49,227.5L1276.49,227.5ZM1291.49,227.5L1291.48,241.5L1305.48,241.5L1305.49,227.5L1291.49,227.5ZM1306.49,227.5L1306.48,241.5L1320.48,241.5L1320.49,227.5L1306.49,227.5ZM1321.49,227.5L1321.48,241.5L1335.48,241.5L1335.49,227.5L1321.49,227.5ZM1351.49,227.5L1351.48,241.5L1365.48,241.5L1365.49,227.5L1351.49,227.5ZM1366.49,227.5L1366.48,241.5L1380.48,241.5L1380.49,227.5L1366.49,227.5ZM1381.49,227.5L1381.48,241.5L1395.48,241.5L1395.49,227.5L1381.49,227.5ZM1336.49,227.5L1336.48,241.5L1350.48,241.5L1350.49,227.5L1336.49,227.5ZM1201.49,227.5L1201.48,241.5L1215.48,241.5L1215.49,227.5L1201.49,227.5ZM1216.49,227.5L1216.48,241.5L1230.48,241.5L1230.49,227.5L1216.49,227.5ZM1231.49,227.5L1231.48,241.5L1245.48,241.5L1245.49,227.5L1231.49,227.5ZM1096.49,212.5L1096.49,226.5L1110.49,226.5L1110.49,212.5L1096.49,212.5ZM1111.49,212.5L1111.49,226.5L1125.49,226.5L1125.49,212.5L1111.49,212.5ZM1126.49,212.5L1126.49,226.5L1140.49,226.5L1140.49,212.5L1126.49,212.5ZM1141.49,212.5L1141.49,226.5L1155.49,226.5L1155.49,212.5L1141.49,212.5ZM1156.49,212.5L1156.49,226.5L1170.49,226.5L1170.49,212.5L1156.49,212.5ZM1171.49,212.5L1171.49,226.5L1185.49,226.5L1185.49,212.5L1171.49,212.5ZM1186.49,212.5L1186.49,226.5L1200.49,226.5L1200.49,212.5L1186.49,212.5ZM1246.49,212.5L1246.49,226.5L1260.49,226.5L1260.49,212.5L1246.49,212.5ZM1261.49,212.5L1261.49,226.5L1275.49,226.5L1275.49,212.5L1261.49,212.5ZM1276.49,212.5L1276.49,226.5L1290.49,226.5L1290.49,212.5L1276.49,212.5ZM1291.49,212.5L1291.49,226.5L1305.49,226.5L1305.49,212.5L1291.49,212.5ZM1306.49,212.5L1306.49,226.5L1320.49,226.5L1320.49,212.5L1306.49,212.5ZM1321.49,212.5L1321.49,226.5L1335.49,226.5L1335.49,212.5L1321.49,212.5ZM1336.49,212.5L1336.49,226.5L1350.49,226.5L1350.49,212.5L1336.49,212.5ZM1351.49,212.5L1351.49,226.5L1365.49,226.5L1365.49,212.5L1351.49,212.5ZM1366.49,212.5L1366.49,226.5L1380.49,226.5L1380.49,212.5L1366.49,212.5ZM1381.49,212.5L1381.49,226.5L1395.49,226.5L1395.49,212.5L1381.49,212.5ZM1201.49,212.5L1201.49,226.5L1215.49,226.5L1215.49,212.5L1201.49,212.5ZM1216.49,212.5L1216.49,226.5L1230.49,226.5L1230.49,212.5L1216.49,212.5ZM1231.49,212.5L1231.49,226.5L1245.49,226.5L1245.49,212.5L1231.49,212.5ZM1156.49,197.5L1156.49,211.5L1170.49,211.5L1170.49,197.5L1156.49,197.5ZM1171.49,197.5L1171.49,211.5L1185.49,211.5L1185.49,197.5L1171.49,197.5ZM1186.49,197.5L1186.49,211.5L1200.49,211.5L1200.49,197.5L1186.49,197.5ZM1096.49,197.5L1096.49,211.5L1110.49,211.5L1110.49,197.5L1096.49,197.5ZM1111.49,197.5L1111.49,211.5L1125.49,211.5L1125.49,197.5L1111.49,197.5ZM1126.49,197.5L1126.49,211.5L1140.49,211.5L1140.49,197.5L1126.49,197.5ZM1141.49,197.5L1141.49,211.5L1155.49,211.5L1155.49,197.5L1141.49,197.5ZM1261.49,197.5L1261.49,211.5L1275.49,211.5L1275.49,197.5L1261.49,197.5ZM1246.49,197.5L1246.49,211.5L1260.49,211.5L1260.49,197.5L1246.49,197.5ZM1381.49,197.5L1381.49,211.5L1395.49,211.5L1395.49,197.5L1381.49,197.5ZM1276.49,197.5L1276.49,211.5L1290.49,211.5L1290.49,197.5L1276.49,197.5ZM1291.49,197.5L1291.49,211.5L1305.49,211.5L1305.49,197.5L1291.49,197.5ZM1306.49,197.5L1306.49,211.5L1320.49,211.5L1320.49,197.5L1306.49,197.5ZM1321.49,197.5L1321.49,211.5L1335.49,211.5L1335.49,197.5L1321.49,197.5ZM1336.49,197.5L1336.49,211.5L1350.49,211.5L1350.49,197.5L1336.49,197.5ZM1351.49,197.5L1351.49,211.5L1365.49,211.5L1365.49,197.5L1351.49,197.5ZM1366.49,197.5L1366.49,211.5L1380.49,211.5L1380.49,197.5L1366.49,197.5ZM1201.49,197.5L1201.49,211.5L1215.49,211.5L1215.49,197.5L1201.49,197.5ZM1216.49,197.5L1216.49,211.5L1230.49,211.5L1230.49,197.5L1216.49,197.5ZM1231.49,197.5L1231.49,211.5L1245.49,211.5L1245.49,197.5L1231.49,197.5ZM1171.49,182.5L1171.49,196.5L1185.49,196.5L1185.49,182.5L1171.49,182.5ZM1186.49,182.5L1186.49,196.5L1200.49,196.5L1200.49,182.5L1186.49,182.5ZM1096.49,182.5L1096.49,196.5L1110.49,196.5L1110.49,182.5L1096.49,182.5ZM1111.49,182.5L1111.49,196.5L1125.49,196.5L1125.49,182.5L1111.49,182.5ZM1126.49,182.5L1126.49,196.5L1140.49,196.5L1140.49,182.5L1126.49,182.5ZM1141.49,182.5L1141.49,196.5L1155.49,196.5L1155.49,182.5L1141.49,182.5ZM1156.49,182.5L1156.49,196.5L1170.49,196.5L1170.49,182.5L1156.49,182.5ZM1306.49,182.5L1306.49,196.5L1320.49,196.5L1320.49,182.5L1306.49,182.5ZM1291.49,182.5L1291.49,196.5L1305.49,196.5L1305.49,182.5L1291.49,182.5ZM1276.49,182.5L1276.49,196.5L1290.49,196.5L1290.49,182.5L1276.49,182.5ZM1261.49,182.5L1261.49,196.5L1275.49,196.5L1275.49,182.5L1261.49,182.5ZM1246.49,182.5L1246.49,196.5L1260.49,196.5L1260.49,182.5L1246.49,182.5ZM1201.49,182.5L1201.49,196.5L1215.49,196.5L1215.49,182.5L1201.49,182.5ZM1231.49,182.5L1231.49,196.5L1245.49,196.5L1245.49,182.5L1231.49,182.5ZM1216.49,182.5L1216.49,196.5L1230.49,196.5L1230.49,182.5L1216.49,182.5ZM1321.49,182.5L1321.49,196.5L1335.49,196.5L1335.49,182.5L1321.49,182.5ZM1336.49,182.5L1336.49,196.5L1350.49,196.5L1350.49,182.5L1336.49,182.5ZM1351.49,182.5L1351.49,196.5L1365.49,196.5L1365.49,182.5L1351.49,182.5ZM1366.49,182.5L1366.49,196.5L1380.49,196.5L1380.49,182.5L1366.49,182.5ZM1381.49,182.5L1381.49,196.5L1395.49,196.5L1395.49,182.5L1381.49,182.5ZM1096.5,167.5L1096.49,181.5L1110.49,181.5L1110.5,167.5L1096.5,167.5ZM1111.5,167.5L1111.49,181.5L1125.49,181.5L1125.5,167.5L1111.5,167.5ZM1126.5,167.5L1126.49,181.5L1140.49,181.5L1140.5,167.5L1126.5,167.5ZM1141.5,167.5L1141.49,181.5L1155.49,181.5L1155.5,167.5L1141.5,167.5ZM1156.5,167.5L1156.49,181.5L1170.49,181.5L1170.5,167.5L1156.5,167.5ZM1171.5,167.5L1171.49,181.5L1185.49,181.5L1185.5,167.5L1171.5,167.5ZM1186.5,167.5L1186.49,181.5L1200.49,181.5L1200.5,167.5L1186.5,167.5ZM1381.5,167.5L1381.49,181.5L1395.49,181.5L1395.5,167.5L1381.5,167.5ZM1351.5,167.5L1351.49,181.5L1365.49,181.5L1365.5,167.5L1351.5,167.5ZM1366.5,167.5L1366.49,181.5L1380.49,181.5L1380.5,167.5L1366.5,167.5ZM1201.5,167.5L1201.49,181.5L1215.49,181.5L1215.5,167.5L1201.5,167.5ZM1216.5,167.5L1216.49,181.5L1230.49,181.5L1230.5,167.5L1216.5,167.5ZM1231.5,167.5L1231.49,181.5L1245.49,181.5L1245.5,167.5L1231.5,167.5ZM1246.5,167.5L1246.49,181.5L1260.49,181.5L1260.5,167.5L1246.5,167.5ZM1261.5,167.5L1261.49,181.5L1275.49,181.5L1275.5,167.5L1261.5,167.5ZM1276.5,167.5L1276.49,181.5L1290.49,181.5L1290.5,167.5L1276.5,167.5ZM1291.5,167.5L1291.49,181.5L1305.49,181.5L1305.5,167.5L1291.5,167.5ZM1306.5,167.5L1306.49,181.5L1320.49,181.5L1320.5,167.5L1306.5,167.5ZM1321.5,167.5L1321.49,181.5L1335.49,181.5L1335.5,167.5L1321.5,167.5ZM1336.5,167.5L1336.49,181.5L1350.49,181.5L1350.5,167.5L1336.5,167.5ZM1186.5,152.5L1186.5,166.5L1200.5,166.5L1200.5,152.5L1186.5,152.5ZM1156.5,152.5L1156.5,166.5L1170.5,166.5L1170.5,152.5L1156.5,152.5ZM1141.5,152.5L1141.5,166.5L1155.5,166.5L1155.5,152.5L1141.5,152.5ZM1126.5,152.5L1126.5,166.5L1140.5,166.5L1140.5,152.5L1126.5,152.5ZM1111.5,152.5L1111.5,166.5L1125.5,166.5L1125.5,152.5L1111.5,152.5ZM1096.5,152.5L1096.5,166.5L1110.5,166.5L1110.5,152.5L1096.5,152.5ZM1171.5,152.5L1171.5,166.5L1185.5,166.5L1185.5,152.5L1171.5,152.5ZM1246.5,152.5L1246.5,166.5L1260.5,166.5L1260.5,152.5L1246.5,152.5ZM1261.5,152.5L1261.5,166.5L1275.5,166.5L1275.5,152.5L1261.5,152.5ZM1276.5,152.5L1276.5,166.5L1290.5,166.5L1290.5,152.5L1276.5,152.5ZM1291.5,152.5L1291.5,166.5L1305.5,166.5L1305.5,152.5L1291.5,152.5ZM1306.5,152.5L1306.5,166.5L1320.5,166.5L1320.5,152.5L1306.5,152.5ZM1321.5,152.5L1321.5,166.5L1335.5,166.5L1335.5,152.5L1321.5,152.5ZM1336.5,152.5L1336.5,166.5L1350.5,166.5L1350.5,152.5L1336.5,152.5ZM1351.5,152.5L1351.5,166.5L1365.5,166.5L1365.5,152.5L1351.5,152.5ZM1366.5,152.5L1366.5,166.5L1380.5,166.5L1380.5,152.5L1366.5,152.5ZM1381.5,152.5L1381.5,166.5L1395.5,166.5L1395.5,152.5L1381.5,152.5ZM1201.5,152.5L1201.5,166.5L1215.5,166.5L1215.5,152.5L1201.5,152.5ZM1216.5,152.5L1216.5,166.5L1230.5,166.5L1230.5,152.5L1216.5,152.5ZM1231.5,152.5L1231.5,166.5L1245.5,166.5L1245.5,152.5L1231.5,152.5ZM1111.5,137.5L1111.5,151.5L1125.5,151.5L1125.5,137.5L1111.5,137.5ZM1096.5,137.5L1096.5,151.5L1110.5,151.5L1110.5,137.5L1096.5,137.5ZM1126.5,137.5L1126.5,151.5L1140.5,151.5L1140.5,137.5L1126.5,137.5ZM1141.5,137.5L1141.5,151.5L1155.5,151.5L1155.5,137.5L1141.5,137.5ZM1156.5,137.5L1156.5,151.5L1170.5,151.5L1170.5,137.5L1156.5,137.5ZM1171.5,137.5L1171.5,151.5L1185.5,151.5L1185.5,137.5L1171.5,137.5ZM1186.5,137.5L1186.5,151.5L1200.5,151.5L1200.5,137.5L1186.5,137.5ZM1201.5,137.5L1201.5,151.5L1215.5,151.5L1215.5,137.5L1201.5,137.5ZM1216.5,137.5L1216.5,151.5L1230.5,151.5L1230.5,137.5L1216.5,137.5ZM1231.5,137.5L1231.5,151.5L1245.5,151.5L1245.5,137.5L1231.5,137.5ZM1276.5,137.5L1276.5,151.5L1290.5,151.5L1290.5,137.5L1276.5,137.5ZM1246.5,137.5L1246.5,151.5L1260.5,151.5L1260.5,137.5L1246.5,137.5ZM1261.5,137.5L1261.5,151.5L1275.5,151.5L1275.5,137.5L1261.5,137.5ZM1291.5,137.5L1291.5,151.5L1305.5,151.5L1305.5,137.5L1291.5,137.5ZM1306.5,137.5L1306.5,151.5L1320.5,151.5L1320.5,137.5L1306.5,137.5ZM1321.5,137.5L1321.5,151.5L1335.5,151.5L1335.5,137.5L1321.5,137.5ZM1336.5,137.5L1336.5,151.5L1350.5,151.5L1350.5,137.5L1336.5,137.5ZM1351.5,137.5L1351.5,151.5L1365.5,151.5L1365.5,137.5L1351.5,137.5ZM1366.5,137.5L1366.5,151.5L1380.5,151.5L1380.5,137.5L1366.5,137.5ZM1381.5,137.5L1381.5,151.5L1395.5,151.5L1395.5,137.5L1381.5,137.5ZM1096.51,122.5L1096.5,136.5L1110.5,136.5L1110.51,122.5L1096.51,122.5ZM1111.51,122.5L1111.5,136.5L1125.5,136.5L1125.51,122.5L1111.51,122.5ZM1126.51,122.5L1126.5,136.5L1140.5,136.5L1140.51,122.5L1126.51,122.5ZM1141.51,122.5L1141.5,136.5L1155.5,136.5L1155.51,122.5L1141.51,122.5ZM1156.51,122.5L1156.5,136.5L1170.5,136.5L1170.51,122.5L1156.51,122.5ZM1171.51,122.5L1171.5,136.5L1185.5,136.5L1185.51,122.5L1171.51,122.5ZM1186.51,122.5L1186.5,136.5L1200.5,136.5L1200.51,122.5L1186.51,122.5ZM1201.51,122.5L1201.5,136.5L1215.5,136.5L1215.51,122.5L1201.51,122.5ZM1216.51,122.5L1216.5,136.5L1230.5,136.5L1230.51,122.5L1216.51,122.5ZM1231.51,122.5L1231.5,136.5L1245.5,136.5L1245.51,122.5L1231.51,122.5ZM1246.51,122.5L1246.5,136.5L1260.5,136.5L1260.51,122.5L1246.51,122.5ZM1261.51,122.5L1261.5,136.5L1275.5,136.5L1275.51,122.5L1261.51,122.5ZM1276.51,122.5L1276.5,136.5L1290.5,136.5L1290.51,122.5L1276.51,122.5ZM1291.51,122.5L1291.5,136.5L1305.5,136.5L1305.51,122.5L1291.51,122.5ZM1306.51,122.5L1306.5,136.5L1320.5,136.5L1320.51,122.5L1306.51,122.5ZM1321.51,122.5L1321.5,136.5L1335.5,136.5L1335.51,122.5L1321.51,122.5ZM1336.51,122.5L1336.5,136.5L1350.5,136.5L1350.51,122.5L1336.51,122.5ZM1351.51,122.5L1351.5,136.5L1365.5,136.5L1365.51,122.5L1351.51,122.5ZM1366.51,122.5L1366.5,136.5L1380.5,136.5L1380.51,122.5L1366.51,122.5ZM1381.51,122.5L1381.5,136.5L1395.5,136.5L1395.51,122.5L1381.51,122.5ZM1126.51,107.5L1126.51,121.5L1140.51,121.5L1140.51,107.5L1126.51,107.5ZM1096.51,107.5L1096.51,121.5L1110.51,121.5L1110.51,107.5L1096.51,107.5ZM1111.51,107.5L1111.51,121.5L1125.51,121.5L1125.51,107.5L1111.51,107.5ZM1141.51,107.5L1141.51,121.5L1155.51,121.5L1155.51,107.5L1141.51,107.5ZM1156.51,107.5L1156.51,121.5L1170.51,121.5L1170.51,107.5L1156.51,107.5ZM1171.51,107.5L1171.51,121.5L1185.51,121.5L1185.51,107.5L1171.51,107.5ZM1186.51,107.5L1186.51,121.5L1200.51,121.5L1200.51,107.5L1186.51,107.5ZM1201.51,107.5L1201.51,121.5L1215.51,121.5L1215.51,107.5L1201.51,107.5ZM1216.51,107.5L1216.51,121.5L1230.51,121.5L1230.51,107.5L1216.51,107.5ZM1231.51,107.5L1231.51,121.5L1245.51,121.5L1245.51,107.5L1231.51,107.5ZM1321.51,107.5L1321.51,121.5L1335.51,121.5L1335.51,107.5L1321.51,107.5ZM1246.51,107.5L1246.51,121.5L1260.51,121.5L1260.51,107.5L1246.51,107.5ZM1261.51,107.5L1261.51,121.5L1275.51,121.5L1275.51,107.5L1261.51,107.5ZM1276.51,107.5L1276.51,121.5L1290.51,121.5L1290.51,107.5L1276.51,107.5ZM1291.51,107.5L1291.51,121.5L1305.51,121.5L1305.51,107.5L1291.51,107.5ZM1306.51,107.5L1306.51,121.5L1320.51,121.5L1320.51,107.5L1306.51,107.5ZM1381.51,107.5L1381.51,121.5L1395.51,121.5L1395.51,107.5L1381.51,107.5ZM1366.51,107.5L1366.51,121.5L1380.51,121.5L1380.51,107.5L1366.51,107.5ZM1351.51,107.5L1351.51,121.5L1365.51,121.5L1365.51,107.5L1351.51,107.5ZM1336.51,107.5L1336.51,121.5L1350.51,121.5L1350.51,107.5L1336.51,107.5ZM1141.51,92.5L1141.51,106.5L1155.51,106.5L1155.51,92.5L1141.51,92.5ZM1126.51,92.5L1126.51,106.5L1140.51,106.5L1140.51,92.5L1126.51,92.5ZM1111.51,92.5L1111.51,106.5L1125.51,106.5L1125.51,92.5L1111.51,92.5ZM1096.51,92.5L1096.51,106.5L1110.51,106.5L1110.51,92.5L1096.51,92.5ZM1156.51,92.5L1156.51,106.5L1170.51,106.5L1170.51,92.5L1156.51,92.5ZM1171.51,92.5L1171.51,106.5L1185.51,106.5L1185.51,92.5L1171.51,92.5ZM1186.51,92.5L1186.51,106.5L1200.51,106.5L1200.51,92.5L1186.51,92.5ZM1201.51,92.5L1201.51,106.5L1215.51,106.5L1215.51,92.5L1201.51,92.5ZM1216.51,92.5L1216.51,106.5L1230.51,106.5L1230.51,92.5L1216.51,92.5ZM1231.51,92.5L1231.51,106.5L1245.51,106.5L1245.51,92.5L1231.51,92.5ZM1291.51,92.5L1291.51,106.5L1305.51,106.5L1305.51,92.5L1291.51,92.5ZM1246.51,92.5L1246.51,106.5L1260.51,106.5L1260.51,92.5L1246.51,92.5ZM1261.51,92.5L1261.51,106.5L1275.51,106.5L1275.51,92.5L1261.51,92.5ZM1276.51,92.5L1276.51,106.5L1290.51,106.5L1290.51,92.5L1276.51,92.5ZM1306.51,92.5L1306.51,106.5L1320.51,106.5L1320.51,92.5L1306.51,92.5ZM1321.51,92.5L1321.51,106.5L1335.51,106.5L1335.51,92.5L1321.51,92.5ZM1336.51,92.5L1336.51,106.5L1350.51,106.5L1350.51,92.5L1336.51,92.5ZM1351.51,92.5L1351.51,106.5L1365.51,106.5L1365.51,92.5L1351.51,92.5ZM1366.51,92.5L1366.51,106.5L1380.51,106.5L1380.51,92.5L1366.51,92.5ZM1381.51,92.5L1381.51,106.5L1395.51,106.5L1395.51,92.5L1381.51,92.5ZM1141.51,77.5L1141.51,91.5L1155.51,91.5L1155.51,77.5L1141.51,77.5ZM1126.51,77.5L1126.51,91.5L1140.51,91.5L1140.51,77.5L1126.51,77.5ZM1111.51,77.5L1111.51,91.5L1125.51,91.5L1125.51,77.5L1111.51,77.5ZM1096.51,77.5L1096.51,91.5L1110.51,91.5L1110.51,77.5L1096.51,77.5ZM1216.51,77.5L1216.51,91.5L1230.51,91.5L1230.51,77.5L1216.51,77.5ZM1201.51,77.5L1201.51,91.5L1215.51,91.5L1215.51,77.5L1201.51,77.5ZM1171.51,77.5L1171.51,91.5L1185.51,91.5L1185.51,77.5L1171.51,77.5ZM1156.51,77.5L1156.51,91.5L1170.51,91.5L1170.51,77.5L1156.51,77.5ZM1186.51,77.5L1186.51,91.5L1200.51,91.5L1200.51,77.5L1186.51,77.5ZM1231.51,77.5L1231.51,91.5L1245.51,91.5L1245.51,77.5L1231.51,77.5ZM1276.51,77.5L1276.51,91.5L1290.51,91.5L1290.51,77.5L1276.51,77.5ZM1291.51,77.5L1291.51,91.5L1305.51,91.5L1305.51,77.5L1291.51,77.5ZM1306.51,77.5L1306.51,91.5L1320.51,91.5L1320.51,77.5L1306.51,77.5ZM1321.51,77.5L1321.51,91.5L1335.51,91.5L1335.51,77.5L1321.51,77.5ZM1246.51,77.5L1246.51,91.5L1260.51,91.5L1260.51,77.5L1246.51,77.5ZM1261.51,77.5L1261.51,91.5L1275.51,91.5L1275.51,77.5L1261.51,77.5ZM1336.51,77.5L1336.51,91.5L1350.51,91.5L1350.51,77.5L1336.51,77.5ZM1366.51,77.5L1366.51,91.5L1380.51,91.5L1380.51,77.5L1366.51,77.5ZM1381.51,77.5L1381.51,91.5L1395.51,91.5L1395.51,77.5L1381.51,77.5ZM1351.51,77.5L1351.51,91.5L1365.51,91.5L1365.51,77.5L1351.51,77.5ZM1111.52,62.5L1111.52,76.5L1125.52,76.5L1125.52,62.5L1111.52,62.5ZM1096.52,62.5L1096.52,76.5L1110.52,76.5L1110.52,62.5L1096.52,62.5ZM1201.52,62.5L1201.52,76.5L1215.52,76.5L1215.52,62.5L1201.52,62.5ZM1126.52,62.5L1126.52,76.5L1140.52,76.5L1140.52,62.5L1126.52,62.5ZM1141.52,62.5L1141.52,76.5L1155.52,76.5L1155.52,62.5L1141.52,62.5ZM1156.52,62.5L1156.52,76.5L1170.52,76.5L1170.52,62.5L1156.52,62.5ZM1171.52,62.5L1171.52,76.5L1185.52,76.5L1185.52,62.5L1171.52,62.5ZM1186.52,62.5L1186.52,76.5L1200.52,76.5L1200.52,62.5L1186.52,62.5ZM1246.52,62.5L1246.52,76.5L1260.52,76.5L1260.52,62.5L1246.52,62.5ZM1261.52,62.5L1261.52,76.5L1275.52,76.5L1275.52,62.5L1261.52,62.5ZM1216.52,62.5L1216.52,76.5L1230.52,76.5L1230.52,62.5L1216.52,62.5ZM1231.52,62.5L1231.52,76.5L1245.52,76.5L1245.52,62.5L1231.52,62.5ZM1306.52,62.5L1306.52,76.5L1320.52,76.5L1320.52,62.5L1306.52,62.5ZM1276.52,62.5L1276.52,76.5L1290.52,76.5L1290.52,62.5L1276.52,62.5ZM1291.52,62.5L1291.52,76.5L1305.52,76.5L1305.52,62.5L1291.52,62.5ZM1321.52,62.5L1321.52,76.5L1335.52,76.5L1335.52,62.5L1321.52,62.5ZM1336.52,62.5L1336.52,76.5L1350.52,76.5L1350.52,62.5L1336.52,62.5ZM1351.52,62.5L1351.52,76.5L1365.52,76.5L1365.52,62.5L1351.52,62.5ZM1366.52,62.5L1366.52,76.5L1380.52,76.5L1380.52,62.5L1366.52,62.5ZM1381.52,62.5L1381.52,76.5L1395.52,76.5L1395.52,62.5L1381.52,62.5ZM1096.52,47.5L1096.52,61.5L1110.52,61.5L1110.52,47.5L1096.52,47.5ZM1111.52,47.5L1111.52,61.5L1125.52,61.5L1125.52,47.5L1111.52,47.5ZM1126.52,47.5L1126.52,61.5L1140.52,61.5L1140.52,47.5L1126.52,47.5ZM1141.52,47.5L1141.52,61.5L1155.52,61.5L1155.52,47.5L1141.52,47.5ZM1156.52,47.5L1156.52,61.5L1170.52,61.5L1170.52,47.5L1156.52,47.5ZM1171.52,47.5L1171.52,61.5L1185.52,61.5L1185.52,47.5L1171.52,47.5ZM1186.52,47.5L1186.52,61.5L1200.52,61.5L1200.52,47.5L1186.52,47.5ZM1201.52,47.5L1201.52,61.5L1215.52,61.5L1215.52,47.5L1201.52,47.5ZM1216.52,47.5L1216.52,61.5L1230.52,61.5L1230.52,47.5L1216.52,47.5ZM1231.52,47.5L1231.52,61.5L1245.52,61.5L1245.52,47.5L1231.52,47.5ZM1246.52,47.5L1246.52,61.5L1260.52,61.5L1260.52,47.5L1246.52,47.5ZM1261.52,47.5L1261.52,61.5L1275.52,61.5L1275.52,47.5L1261.52,47.5ZM1276.52,47.5L1276.52,61.5L1290.52,61.5L1290.52,47.5L1276.52,47.5ZM1291.52,47.5L1291.52,61.5L1305.52,61.5L1305.52,47.5L1291.52,47.5ZM1306.52,47.5L1306.52,61.5L1320.52,61.5L1320.52,47.5L1306.52,47.5ZM1321.52,47.5L1321.52,61.5L1335.52,61.5L1335.52,47.5L1321.52,47.5ZM1351.52,47.5L1351.52,61.5L1365.52,61.5L1365.52,47.5L1351.52,47.5ZM1336.52,47.5L1336.52,61.5L1350.52,61.5L1350.52,47.5L1336.52,47.5ZM1366.52,47.5L1366.52,61.5L1380.52,61.5L1380.52,47.5L1366.52,47.5ZM1381.52,47.5L1381.52,61.5L1395.52,61.5L1395.52,47.5L1381.52,47.5ZM1096.52,32.5L1096.52,46.5L1110.52,46.5L1110.52,32.5L1096.52,32.5ZM1111.52,32.5L1111.52,46.5L1125.52,46.5L1125.52,32.5L1111.52,32.5ZM1156.52,32.5L1156.52,46.5L1170.52,46.5L1170.52,32.5L1156.52,32.5ZM1126.52,32.5L1126.52,46.5L1140.52,46.5L1140.52,32.5L1126.52,32.5ZM1141.52,32.5L1141.52,46.5L1155.52,46.5L1155.52,32.5L1141.52,32.5ZM1171.52,32.5L1171.52,46.5L1185.52,46.5L1185.52,32.5L1171.52,32.5ZM1186.52,32.5L1186.52,46.5L1200.52,46.5L1200.52,32.5L1186.52,32.5ZM1201.52,32.5L1201.52,46.5L1215.52,46.5L1215.52,32.5L1201.52,32.5ZM1216.52,32.5L1216.52,46.5L1230.52,46.5L1230.52,32.5L1216.52,32.5ZM1261.52,32.5L1261.52,46.5L1275.52,46.5L1275.52,32.5L1261.52,32.5ZM1231.52,32.5L1231.52,46.5L1245.52,46.5L1245.52,32.5L1231.52,32.5ZM1246.52,32.5L1246.52,46.5L1260.52,46.5L1260.52,32.5L1246.52,32.5ZM1291.52,32.5L1291.52,46.5L1305.52,46.5L1305.52,32.5L1291.52,32.5ZM1306.52,32.5L1306.52,46.5L1320.52,46.5L1320.52,32.5L1306.52,32.5ZM1276.52,32.5L1276.52,46.5L1290.52,46.5L1290.52,32.5L1276.52,32.5ZM1351.52,32.5L1351.52,46.5L1365.52,46.5L1365.52,32.5L1351.52,32.5ZM1321.52,32.5L1321.52,46.5L1335.52,46.5L1335.52,32.5L1321.52,32.5ZM1336.52,32.5L1336.52,46.5L1350.52,46.5L1350.52,32.5L1336.52,32.5ZM1366.52,32.5L1366.52,46.5L1380.52,46.5L1380.52,32.5L1366.52,32.5ZM1381.52,32.5L1381.52,46.5L1395.52,46.5L1395.52,32.5L1381.52,32.5ZM1096.53,17.5L1096.52,31.5L1110.52,31.5L1110.53,17.5L1096.53,17.5ZM1111.53,17.5L1111.52,31.5L1125.52,31.5L1125.53,17.5L1111.53,17.5ZM1126.53,17.5L1126.52,31.5L1140.52,31.5L1140.53,17.5L1126.53,17.5ZM1141.53,17.5L1141.52,31.5L1155.52,31.5L1155.53,17.5L1141.53,17.5ZM1156.53,17.5L1156.52,31.5L1170.52,31.5L1170.53,17.5L1156.53,17.5ZM1171.53,17.5L1171.52,31.5L1185.52,31.5L1185.53,17.5L1171.53,17.5ZM1201.53,17.5L1201.52,31.5L1215.52,31.5L1215.53,17.5L1201.53,17.5ZM1186.53,17.5L1186.52,31.5L1200.52,31.5L1200.53,17.5L1186.53,17.5ZM1216.53,17.5L1216.52,31.5L1230.52,31.5L1230.53,17.5L1216.53,17.5ZM1246.53,17.5L1246.52,31.5L1260.52,31.5L1260.53,17.5L1246.53,17.5ZM1231.53,17.5L1231.52,31.5L1245.52,31.5L1245.53,17.5L1231.53,17.5ZM1261.53,17.5L1261.52,31.5L1275.52,31.5L1275.53,17.5L1261.53,17.5ZM1291.53,17.5L1291.52,31.5L1305.52,31.5L1305.53,17.5L1291.53,17.5ZM1276.53,17.5L1276.52,31.5L1290.52,31.5L1290.53,17.5L1276.53,17.5ZM1321.53,17.5L1321.52,31.5L1335.52,31.5L1335.53,17.5L1321.53,17.5ZM1306.53,17.5L1306.52,31.5L1320.52,31.5L1320.53,17.5L1306.53,17.5ZM1336.53,17.5L1336.52,31.5L1350.52,31.5L1350.53,17.5L1336.53,17.5ZM1351.53,17.5L1351.52,31.5L1365.52,31.5L1365.53,17.5L1351.53,17.5ZM1366.53,17.5L1366.52,31.5L1380.52,31.5L1380.53,17.5L1366.53,17.5ZM1381.53,17.5L1381.52,31.5L1395.52,31.5L1395.53,17.5L1381.53,17.5ZM1096.53,2.5L1096.53,16.5L1110.53,16.5L1110.53,2.5L1096.53,2.5ZM1111.53,2.5L1111.53,16.5L1125.53,16.5L1125.53,2.5L1111.53,2.5ZM1126.53,2.5L1126.53,16.5L1140.53,16.5L1140.53,2.5L1126.53,2.5ZM1141.53,2.5L1141.53,16.5L1155.53,16.5L1155.53,2.5L1141.53,2.5ZM1156.53,2.5L1156.53,16.5L1170.53,16.5L1170.53,2.5L1156.53,2.5ZM1171.53,2.5L1171.53,16.5L1185.53,16.5L1185.53,2.5L1171.53,2.5ZM1186.53,2.5L1186.53,16.5L1200.53,16.5L1200.53,2.5L1186.53,2.5ZM1201.53,2.5L1201.53,16.5L1215.53,16.5L1215.53,2.5L1201.53,2.5ZM1216.53,2.5L1216.53,16.5L1230.53,16.5L1230.53,2.5L1216.53,2.5ZM1231.53,2.5L1231.53,16.5L1245.53,16.5L1245.53,2.5L1231.53,2.5ZM1261.53,2.5L1261.53,16.5L1275.53,16.5L1275.53,2.5L1261.53,2.5ZM1246.53,2.5L1246.53,16.5L1260.53,16.5L1260.53,2.5L1246.53,2.5ZM1276.53,2.5L1276.53,16.5L1290.53,16.5L1290.53,2.5L1276.53,2.5ZM1291.53,2.5L1291.53,16.5L1305.53,16.5L1305.53,2.5L1291.53,2.5ZM1306.53,2.5L1306.53,16.5L1320.53,16.5L1320.53,2.5L1306.53,2.5ZM1321.53,2.5L1321.53,16.5L1335.53,16.5L1335.53,2.5L1321.53,2.5ZM1336.53,2.5L1336.53,16.5L1350.53,16.5L1350.53,2.5L1336.53,2.5ZM1351.53,2.5L1351.53,16.5L1365.53,16.5L1365.53,2.5L1351.53,2.5ZM1366.53,2.5L1366.53,16.5L1380.53,16.5L1380.53,2.5L1366.53,2.5ZM1381.53,2.5L1381.53,16.5L1395.53,16.5L1395.53,2.5L1381.53,2.5Z"/>
                        </clipPath>
                        <g clip-path="url(#_clip3)">
                            <g transform="matrix(0.279444,0,0,0.372592,1084.07,-22.0157)">
                                <g id="本体" transform="matrix(3.76648,0,0,2.82486,-276.083,-247.458)">
                                    <circle cx="179.5" cy="211.5" r="88.5" style="fill:url(#_Linear4);"/>
                                </g>
                                <g id="でこ" transform="matrix(2.66667,0,0,2,0,0)">
                                    <path d="M116.51,33C123.426,31.75 136.255,42.5 150,42.5C163.745,42.5 176.574,31.75 183.49,33C190.407,34.25 191.5,40.841 191.5,50C191.5,72.904 172.904,91.5 150,91.5C127.096,91.5 108.5,72.904 108.5,50C108.5,40.841 109.593,34.25 116.51,33Z" style="fill:url(#_Linear5);"/>
                                </g>
                                <g transform="matrix(2.66667,0,0,2,0,0)">
                                    <path d="M150,42.5C148.989,42.972 211.394,78.219 227,144C242.606,209.781 200,228 200,228C200,228 160.798,57.773 150,42.5" style="fill:url(#_Linear6);"/>
                                </g>
                            </g>
                        </g>
                    </g>
                </g>
            </g>
        </g>
    </g>
    <defs>
        <linearGradient id="_Linear4" x1="0" y1="0" x2="1" y2="0" gradientUnits="userSpaceOnUse" gradientTransform="matrix(177,0,0,267.101,91,166.449)"><stop offset="0" style="stop-color:rgb(231,255,0);stop-opacity:1"/><stop offset="1" style="stop-color:rgb(255,203,131);stop-opacity:1"/></linearGradient>
        <linearGradient id="_Linear5" x1="0" y1="0" x2="1" y2="0" gradientUnits="userSpaceOnUse" gradientTransform="matrix(177,0,0,267.101,91,166.449)"><stop offset="0" style="stop-color:rgb(231,255,0);stop-opacity:1"/><stop offset="1" style="stop-color:rgb(255,203,131);stop-opacity:1"/></linearGradient>
        <linearGradient id="_Linear6" x1="0" y1="0" x2="1" y2="0" gradientUnits="userSpaceOnUse" gradientTransform="matrix(80.4489,0,0,185.5,149.988,135.25)"><stop offset="0" style="stop-color:rgb(225,255,0);stop-opacity:1"/><stop offset="1" style="stop-color:rgb(57,255,48);stop-opacity:1"/></linearGradient>
    </defs>
</svg>
